<svg width="44" height="44" viewBox="0 0 44 44" fill="none" xmlns="http://www.w3.org/2000/svg">
<path fill-rule="evenodd" clip-rule="evenodd" d="M12.25 14C12.25 13.5858 12.5858 13.25 13 13.25H31C31.4142 13.25 31.75 13.5858 31.75 14C31.75 14.4142 31.4142 14.75 31 14.75H13C12.5858 14.75 12.25 14.4142 12.25 14ZM12.25 22C12.25 21.5858 12.5858 21.25 13 21.25H31C31.4142 21.25 31.75 21.5858 31.75 22C31.75 22.4142 31.4142 22.75 31 22.75H13C12.5858 22.75 12.25 22.4142 12.25 22ZM13 29.25C12.5858 29.25 12.25 29.5858 12.25 30C12.25 30.4142 12.5858 30.75 13 30.75H31C31.4142 30.75 31.75 30.4142 31.75 30C31.75 29.5858 31.4142 29.25 31 29.25H13Z" fill="#333333"/>
</svg>
