<svg width="41" height="41" viewBox="0 0 41 41" fill="none" xmlns="http://www.w3.org/2000/svg">
<rect width="40" height="40" transform="translate(0.5 0.125)" fill="white"/>
<path d="M14.9229 10.3617C15.7894 8.17678 17.9309 6.625 20.4438 6.625H20.58C23.0805 6.625 25.222 8.17678 26.0885 10.3617" stroke="#333333" stroke-width="1.5" stroke-miterlimit="10" stroke-linecap="round"/>
<path d="M14.4961 13.2418V18.4062C14.4961 19.6476 14.8798 20.8269 15.5483 21.7828C16.6129 23.3346 18.4078 24.365 20.4379 24.365H20.5741C22.6042 24.365 24.3991 23.347 25.4637 21.7828C26.1322 20.8269 26.5159 19.6476 26.5159 18.4062V13.2418" stroke="#333333" stroke-width="1.5" stroke-miterlimit="10" stroke-linecap="round"/>
<rect x="12.8193" y="10.3617" width="15.3616" height="2.88009" rx="1.44004" stroke="#333333" stroke-width="1.5"/>
<path d="M26.0138 21.7704H27.0196C28.2289 21.7704 29.2648 22.6359 29.4798 23.826L29.5521 24.2264M14.9986 21.7704H13.9804C12.7711 21.7704 11.7352 22.6359 11.5202 23.826L10.2819 30.6806C10.0048 32.2143 11.1835 33.625 12.7421 33.625H28.2579C29.8165 33.625 30.9952 32.2143 30.7181 30.6806L30.2916 28.3194" stroke="#333333" stroke-width="1.5" stroke-miterlimit="10" stroke-linecap="round"/>
<path d="M18.6318 13.5742H22.3685V16.5079C22.3685 17.5398 21.532 18.3762 20.5002 18.3762C19.4683 18.3762 18.6318 17.5398 18.6318 16.5079V13.5742Z" fill="#FFA33F" stroke="#333333" stroke-width="1.5"/>
</svg>
